<svg id="Capa_1" enable-background="new 0 0 512 512" height="512" viewBox="0 0 512 512" width="512" xmlns="http://www.w3.org/2000/svg"><g><path d="m62.035 512 40.878-111.687c-48.557-43.529-76.19-105.134-76.19-170.675 0-61.242 23.849-118.819 67.154-162.124 43.305-43.304 100.881-67.514 162.123-67.514s118.818 24.21 162.123 67.515c43.306 43.305 67.154 100.881 67.154 162.124s-23.849 118.819-67.154 162.124c-43.305 43.303-100.881 67.153-162.123 67.153-12.596 0-25.243-1.039-37.655-3.091zm193.965-481.639c-109.882 0-199.277 89.396-199.277 199.277 0 33.788 8.636 67.394 25.088 96.918 14.28 25.626 33.991 45.871 56.531 64.275l-26.075 71.141 103.492-37.088c13.32 2.449 26.679 4.032 40.242 4.032 109.882 0 199.277-89.396 199.277-199.277s-89.396-199.278-199.278-199.278z"/></g></svg>